<?xml version="1.0" encoding="utf-8"?>
<svg xmlns="http://www.w3.org/2000/svg" viewBox="138.434 102.5986 107.722 107.7" width="107.722px" height="107.7px"><g transform="matrix(1, 0, 0, 1, 105.59600224488972, 92.43860001025496)" id="object-0"><g><g id="__id0_sacdafiti"><path d="M 37.165 11.818 C 36.076 11.818 35.192 12.441 35.192 13.206 L 35.193 114.813 C 35.193 115.579 36.076 116.202 37.164 116.202 L 136.233 116.201 C 137.319 116.201 138.205 115.579 138.205 114.814 L 138.205 13.206 C 138.205 12.44 137.319 11.818 136.233 11.818 L 37.165 11.818 Z M 136.233 117.86 L 37.165 117.86 C 34.779 117.86 32.838 116.493 32.838 114.814 L 32.838 13.206 C 32.838 11.527 34.779 10.161 37.164 10.161 L 136.233 10.16 C 138.619 10.16 140.56 11.527 140.56 13.206 L 140.56 114.814 C 140.56 116.493 138.619 117.86 136.233 117.86 Z" style="fill: inherit;"/><path d="M60.5328 26.2164c-2.6066,0 -4.7287,2.1206 -4.7287,4.7265 0.0006,2.6059 2.1219,4.726 4.7282,4.726 2.6035,-0.0006 4.7252,-2.1201 4.7252,-4.726 0.0005,-2.6064 -2.1219,-4.7259 -4.7247,-4.7265zm0 11.8072c-3.9063,0 -7.0837,-3.1763 -7.0837,-7.0807 0.0002,-3.9049 3.1768,-7.0808 7.0832,-7.0808 3.904,-0.0004 7.0801,3.1764 7.0801,7.0808 0.0002,3.9043 -3.1767,7.0808 -7.0796,7.0807z" style="fill: inherit;"/><path d="M50.4413 51.2659l20.1822 0 0 -4.7246c0,-2.6058 -2.1219,-4.7248 -4.7252,-4.7248l-10.7345 -0.0004c-2.6037,0 -4.7226,2.1198 -4.7226,4.7253l0.0001 4.7245zm21.3598 2.3546l-22.5374 0c-0.6527,0 -1.1775,-0.5265 -1.1775,-1.1769l0.0004 -5.9023c0,-3.9043 3.1732,-7.0797 7.0766,-7.0797l10.7357 -0.0002c3.9029,0 7.0795,3.1762 7.0795,7.08l0.0004 5.9021c0,0.6499 -0.5278,1.1776 -1.1777,1.177z" style="fill: inherit;"/><path d="M124.952 26.2171l-45.5897 0c-0.6499,0 -1.1776,-0.5272 -1.1776,-1.1774 0.0006,-0.6503 0.5274,-1.1774 1.1774,-1.1774l45.5899 -0.0006c0.6499,0 1.1773,0.5277 1.1773,1.178 0.0004,0.6502 -0.5275,1.1774 -1.1773,1.1774z" style="fill: inherit;"/><path d="M124.952 39.9187l-45.5897 0c-0.6499,0 -1.1776,-0.5268 -1.1776,-1.177 0.0006,-0.6505 0.5274,-1.1773 1.1774,-1.1773l45.5899 -0.0003c0.6499,0 1.1773,0.5274 1.1773,1.1776 0.0004,0.65 -0.5275,1.1774 -1.1773,1.177z" style="fill: inherit;"/><path d="M124.952 53.6205l-45.5897 0c-0.6499,0 -1.1776,-0.5265 -1.1776,-1.1769 0.0006,-0.6506 0.5274,-1.1774 1.1774,-1.1774l45.5899 -0.0003c0.6499,0 1.1773,0.5274 1.1773,1.1777 0.0004,0.6498 -0.5275,1.1775 -1.1773,1.1769z" style="fill: inherit;"/><path d="M124.952 67.323l-76.5069 0c-0.6499,0 -1.1779,-0.5269 -1.1779,-1.1773 0.0002,-0.6504 0.5274,-1.1775 1.1775,-1.1775l76.5073 0c0.6499,0 1.1773,0.5271 1.1773,1.1775 0.0004,0.6502 -0.5275,1.1774 -1.1773,1.1773z" style="fill: inherit;"/><path d="M124.952 81.0247l-76.5069 0c-0.6499,0 -1.1779,-0.5266 -1.1779,-1.1769 0.0002,-0.6507 0.5274,-1.1775 1.1775,-1.1775l76.5073 -0.0003c0.6499,0 1.1773,0.5273 1.1773,1.1778 0.0004,0.6498 -0.5275,1.1774 -1.1773,1.1769z" style="fill: inherit;"/><path d="M124.952 94.7264l-76.5069 0c-0.6499,0 -1.1779,-0.5266 -1.1779,-1.1769 0.0002,-0.6507 0.5274,-1.1775 1.1775,-1.1775l76.5073 -0.0002c0.6499,0 1.1773,0.5273 1.1773,1.1777 0.0004,0.6498 -0.5275,1.1774 -1.1773,1.1769z" style="fill: inherit;"/><path d="M 124.952 106.429 L 48.445 106.429 C 47.795 106.429 47.267 105.902 47.267 105.252 C 47.267 104.602 47.795 104.074 48.445 104.074 L 124.952 104.074 C 125.602 104.074 126.129 104.602 126.129 105.252 C 126.13 105.902 125.602 106.429 124.952 106.429 Z" style="fill: inherit;"/></g><g id="__id1_sacdafiti"><path d="M60.5323 35.6689c2.6035,-0.0006 4.7252,-2.1201 4.7252,-4.726 0.0005,-2.6064 -2.1219,-4.7259 -4.7247,-4.7265 -2.6066,0 -4.7287,2.1206 -4.7287,4.7265 0.0006,2.6059 2.1219,4.726 4.7282,4.726z" style="fill: rgb(252, 192, 156);"/></g><g id="__id2_sacdafiti"><path d="M65.8983 41.8165l-10.7345 -0.0004c-2.6037,0 -4.7226,2.1198 -4.7226,4.7253l0.0001 4.7245 20.1822 0 0 -4.7246c0,-2.6058 -2.1219,-4.7248 -4.7252,-4.7248z" style="fill: rgb(90, 150, 243);"/></g><g id="__id3_sacdafiti"/></g></g></svg>